Coordinates
version=1
nRows=26
nColumns=24
inDegrees=yes

Units are S.I. units (second, meters, Newtons, ...)
Angles are in degrees.

endheader
time	pelvis_tilt	pelvis_list	pelvis_rotation	pelvis_tx	pelvis_ty	pelvis_tz	hip_flexion_r	hip_adduction_r	hip_rotation_r	knee_angle_r	ankle_angle_r	subtalar_angle_r	mtp_angle_r	hip_flexion_l	hip_adduction_l	hip_rotation_l	knee_angle_l	ankle_angle_l	subtalar_angle_l	mtp_angle_l	lumbar_extension	lumbar_bending	lumbar_rotation
      0.72900000	     -0.39822337	     -3.70104517	      5.53752596	     -0.40701964	      1.03123980	      0.29642253	     10.98731951	      9.81076513	     -1.36616826	    -16.08947854	      3.91226592	    -12.45117849	      8.54743605	     19.33511227	     -7.75102409	     -2.91296698	    -68.31233299	     -6.31247013	     -2.13382335	     -0.81217615	     -4.29616750	      1.66360971	     -1.79482947
      0.73316667	     -0.33546940	     -3.62105450	      5.45777905	     -0.40176167	      1.03189158	      0.29690738	     10.53186993	      9.79946776	     -1.28537014	    -15.98467675	      4.03358584	    -12.40456654	      8.51361729	     19.72948329	     -7.71528968	     -3.04851101	    -67.93154827	     -5.56251600	     -2.35702180	     -0.81265861	     -4.38580426	      1.55073915	     -1.70863967
      0.73733333	     -0.23779890	     -3.53908676	      5.37391953	     -0.39652397	      1.03258964	      0.29741400	     10.02055436	      9.79390035	     -1.15248454	    -15.84635283	      4.20089423	    -12.29545926	      8.44616995	     20.06727629	     -7.68090656	     -3.17833529	    -67.48847069	     -4.79895975	     -2.41338181	     -0.82539440	     -4.55412100	      1.40069378	     -1.52410225
      0.74150000	     -0.14855930	     -3.45838533	      5.27736871	     -0.39128093	      1.03326460	      0.29788113	      9.52213493	      9.78075293	     -1.04704783	    -15.71654397	      4.35366351	    -12.19669233	      8.36543834	     20.39182907	     -7.64121257	     -3.32049319	    -66.98293203	     -4.05272910	     -2.50274535	     -0.84211313	     -4.68144359	      1.28170337	     -1.35502812
      0.74566667	     -0.09274419	     -3.36736196	      5.17011920	     -0.38606553	      1.03388315	      0.29832009	      9.06284572	      9.74884148	     -0.94108739	    -15.59355843	      4.50787063	    -12.09091332	      8.27770709	     20.73382589	     -7.57865439	     -3.46774713	    -66.41600987	     -3.33342854	     -2.58166604	     -0.85967230	     -4.78216473	      1.14352983	     -1.20002720
      0.74983333	     -0.02550937	     -3.28196927	      5.05722466	     -0.38087045	      1.03449457	      0.29873244	      8.58806880	      9.72113266	     -0.83257042	    -15.46009267	      4.65637412	    -11.98449545	      8.19470536	     21.04743970	     -7.51736965	     -3.61265513	    -65.79607696	     -2.61907383	     -2.63888082	     -0.87311982	     -4.90188665	      1.02672913	     -1.05577061
      0.75400000	      0.03458424	     -3.17285791	      4.92833884	     -0.37569046	      1.03510579	      0.29912166	      8.11746223	      9.66340767	     -0.71681500	    -15.32576940	      4.81401419	    -11.86631115	      8.10729043	     21.33894113	     -7.42402743	     -3.77289252	    -65.10197962	     -1.93495927	     -2.67766324	     -0.88707423	     -5.01692849	      0.87313329	     -0.89825192
      0.75816667	      0.08641833	     -3.08400266	      4.79846193	     -0.37053096	      1.03565667	      0.29947618	      7.65324088	      9.62296779	     -0.60586948	    -15.17716327	      4.97719799	    -11.73072982	      8.00145863	     21.63043410	     -7.34537566	     -3.92258585	    -64.36451599	     -1.25850912	     -2.68330052	     -0.90512384	     -5.11199535	      0.73689595	     -0.71885033
      0.76233333	      0.14115386	     -2.97045748	      4.65432655	     -0.36538957	      1.03622434	      0.29979137	      7.18511484	      9.55118618	     -0.48500688	    -15.03287750	      5.13710372	    -11.59978574	      7.88981290	     21.88682146	     -7.23028370	     -4.08061636	    -63.55046364	     -0.61480689	     -2.69784255	     -0.92436760	     -5.22222557	      0.59162870	     -0.54668398
      0.76650000	      0.19157305	     -2.86054522	      4.49885136	     -0.36027799	      1.03677026	      0.30007296	      6.72113689	      9.47948147	     -0.35615802	    -14.88292528	      5.29006098	    -11.47624499	      7.78217004	     22.12849653	     -7.11203866	     -4.23920907	    -62.67837750	      0.00692850	     -2.70082341	     -0.94203789	     -5.33273649	      0.45797732	     -0.37988599
      0.77066667	      0.21080432	     -2.74298614	      4.32576005	     -0.35522081	      1.03722409	      0.30032431	      6.30565831	      9.39289551	     -0.21841215	    -14.75999623	      5.43215064	    -11.37585297	      7.70536182	     22.38551989	     -6.97507878	     -4.40375885	    -61.75250201	      0.61400736	     -2.72231689	     -0.95150289	     -5.42899220	      0.32435816	     -0.24620267
      0.77483333	      0.25810771	     -2.63582586	      4.16130955	     -0.35012236	      1.03771654	      0.30054469	      5.83474433	      9.31632018	     -0.08724893	    -14.58445228	      5.60030135	    -11.22787382	      7.58643165	     22.58924762	     -6.84754225	     -4.55706910	    -60.76282122	      1.17405456	     -2.70049891	     -0.97470275	     -5.52132157	      0.19179862	     -0.02554611
      0.77900000	      0.26347266	     -2.51831968	      3.97824690	     -0.34507598	      1.03810729	      0.30074215	      5.42554422	      9.22094203	      0.05276215	    -14.44058693	      5.76401576	    -11.09557924	      7.45022135	     22.81847250	     -6.69769588	     -4.71543962	    -59.71686174	      1.70490283	     -2.72048783	     -1.00613390	     -5.58344733	      0.05687666	      0.17537835
      0.78316667	      0.25602178	     -2.39853092	      3.78333362	     -0.34007026	      1.03846032	      0.30090828	      5.03874431	      9.11915823	      0.20586032	    -14.30784603	      5.89416232	    -11.01200462	      7.38029413	     23.04088463	     -6.53750855	     -4.87633722	    -58.61182156	      2.20740152	     -2.78047994	     -1.02011741	     -5.65226182	     -0.07627941	      0.28438260
      0.78733333	      0.28863079	     -2.27459088	      3.58664105	     -0.33504157	      1.03886845	      0.30106364	      4.59336662	      9.01259586	      0.35972426	    -14.14507903	      6.04598384	    -10.90072316	      7.29802388	     23.18911575	     -6.37463141	     -5.03970848	    -57.43398496	      2.65835370	     -2.83046822	     -1.04224909	     -5.74985461	     -0.20990800	      0.46690714
      0.79150000	      0.31550966	     -2.16825868	      3.39909977	     -0.33000832	      1.03922197	      0.30117374	      4.14759061	      8.91916634	      0.50192173	    -13.96277711	      6.21038256	    -10.76819614	      7.17314657	     23.32990492	     -6.22052270	     -5.18380517	    -56.20683613	      3.05148940	     -2.91405847	     -1.08616898	     -5.82148303	     -0.32132471	      0.70970889
      0.79566667	      0.26792362	     -2.06397811	      3.19111093	     -0.32501980	      1.03942573	      0.30127925	      3.80623481	      8.82189330	      0.66947363	    -13.82558910	      6.33551840	    -10.69181690	      7.09895840	     23.53342504	     -6.05852301	     -5.32805611	    -54.93094128	      3.43955336	     -3.03791639	     -1.11459944	     -5.83956712	     -0.43004175	      0.83174728
      0.79983333	      0.26782074	     -1.95536445	      2.98712415	     -0.32001945	      1.03967146	      0.30137533	      3.40258473	      8.72002962	      0.83237763	    -13.66489068	      6.48387709	    -10.60224059	      7.01220130	     23.65855659	     -5.89402860	     -5.47476470	    -53.58722958	      3.75292257	     -3.19828829	     -1.15636394	     -5.89936594	     -0.54258429	      1.01696100
      0.80400000	      0.27768988	     -1.86428670	      2.79539618	     -0.31500103	      1.03992566	      0.30142618	      2.97609114	      8.63230438	      0.98745301	    -13.47366511	      6.62389230	    -10.48360341	      6.86560383	     23.75165330	     -5.73364597	     -5.59151649	    -52.18215987	      4.00221864	     -3.42723301	     -1.23851111	     -5.96302791	     -0.63059392	      1.27029240
      0.80816667	      0.25159253	     -1.77656752	      2.59700720	     -0.30998602	      1.04007840	      0.30149174	      2.59963387	      8.54576303	      1.14657022	    -13.30364623	      6.76227111	    -10.40878295	      6.71653894	     23.86330861	     -5.57990502	     -5.72072065	    -50.72601250	      4.21392773	     -3.68594989	     -1.33356530	     -5.97775916	     -0.71496017	      1.45351494
      0.81233333	      0.23375303	     -1.69239213	      2.39912791	     -0.30496577	      1.04021317	      0.30154741	      2.21460052	      8.46166225	      1.31024730	    -13.13346223	      6.89382569	    -10.34709262	      6.58867537	     23.94188736	     -5.42725339	     -5.85078869	    -49.21245786	      4.38914995	     -3.97505036	     -1.42671887	     -6.00702898	     -0.79444831	      1.61275150
      0.81650000	      0.18177973	     -1.61661744	      2.19546274	     -0.29995395	      1.04024877	      0.30160397	      1.88017756	      8.38361052	      1.48721801	    -12.99035639	      7.01564945	    -10.30511036	      6.49805176	     24.03684542	     -5.28023894	     -5.97801676	    -47.64909182	      4.54125166	     -4.28645148	     -1.50359929	     -6.00333416	     -0.87050787	      1.74033363
      0.82066667	      0.15665134	     -1.55519568	      2.00978151	     -0.29489321	      1.04031883	      0.30164429	      1.49640139	      8.32042170	      1.65383530	    -12.80249277	      7.13220277	    -10.25842562	      6.39547368	     24.07808561	     -5.14292741	     -6.09103721	    -46.02446570	      4.60790911	     -4.68947076	     -1.60151218	     -6.01405602	     -0.93038409	      1.91173671
      0.82483333	      0.09404676	     -1.51278130	      1.84022822	     -0.28985133	      1.04026969	      0.30163145	      1.16217305	      8.27128484	      1.80565645	    -12.62682016	      7.23188815	    -10.17866632	      6.18212138	     24.14840217	     -5.00580377	     -6.16158762	    -44.36057379	      4.65253277	     -5.14971410	     -1.81287263	     -5.99498124	     -0.95448517	      2.13525894
      0.82900000	      0.02910689	     -1.45515343	      1.64288825	     -0.28476411	      1.04019788	      0.30171338	      0.83767664	      8.21155949	      1.99177250	    -12.47899084	      7.36508810	    -10.17897896	      6.10384557	     24.18465624	     -4.88657979	     -6.32468902	    -42.63895760	      4.69041563	     -5.51654922	     -1.90561833	     -5.97286027	     -1.01853948	      2.20799800
      0.83316667	      0.00493536	     -1.42523374	      1.49520304	     -0.27964479	      1.04015560	      0.30168788	      0.44874597	      8.17619565	      2.13074157	    -12.27968712	      7.47018066	    -10.15313312	      5.97913168	     24.16058801	     -4.76244420	     -6.40929712	    -40.86124478	      4.61582994	     -6.05206927	     -2.06074242	     -5.96149027	     -1.02756927	      2.38384607
